<svg version="1" xmlns="http://www.w3.org/2000/svg" width="110" height="110" viewBox="0 0 110 110"><circle cx="55" cy="55" r="55" fill="#25B7D3"/><path d="M37 79s3.778-10.39-2.436-17.4c-.34-.384-.336-.96.01-1.338C36.72 57.917 40.528 57.967 46 68c1.43 2.62 4.41 2.48 7 1 4.928-2.813 12.04-11.775 19.5-9.592.34.1.6.37.688.712.087.342-.013.705-.263.955L47 87l-10-8z" fill="#FBC8C8"/><path d="M87 58c0 .552-.448 1-1 1H24c-.552 0-1-.448-1-1v-2c0-.552.448-1 1-1h62c.552 0 1 .448 1 1v2z" fill="#F0F1F1"/><path d="M55 27c1.042 0 2.034.046 3 .115V24c0-.552-.448-1-1-1h-4c-.552 0-1 .448-1 1v3.115c.966-.07 1.958-.115 3-.115z" fill="#FFF"/><path d="M27 55s-1-28 28-28 28 28 28 28H27z" fill="#E2E4E5"/><path fill="#3E3E3F" d="M37 79l-10 8h20"/><path d="M55 27c-29 0-28 28-28 28h28V27z" fill="#FFF"/><path d="M37 79s3.778-10.39-2.436-17.4c-.34-.384-.336-.96.01-1.338C36.72 57.917 40.528 57.967 46 68c1.43 2.62 4.41 2.48 7 1 4.928-2.813 12.04-11.775 19.5-9.592.34.1.6.37.688.712.087.342-.013.705-.263.955L47 87l-10-8z" fill="#FBC8C8"/><path d="M72.925 61.075c.25-.25.35-.612.263-.955s-.35-.613-.688-.712C65.04 57.226 57.928 66.188 53 69c-2.59 1.48-5.57 1.62-7-1-5.472-10.033-9.28-10.083-11.426-7.738-.345.377-.35.955-.01 1.337C40.778 68.61 37 79 37 79l2.727 2.182 30.975-17.884 2.223-2.223z" fill="#F7B4B4"/></svg>