<svg version="1" xmlns="http://www.w3.org/2000/svg" width="110" height="110" viewBox="0 0 110 110"><circle cx="55" cy="55" r="55" fill="#25b7d3"/><circle cx="50" cy="29" r="6" fill="#fff"/><path d="M29.434 54.346l19.554-26.968c.339-.428.967-.502 1.373-.188l23.834 19.781 2.613-.43-25.194-20.909c-1.293-1.006-3.174-.78-4.218.538L26.629 54.808l2.805-.462z" fill="#3e3e3f"/><path fill="#0d9681" d="M78.609 50.301l3.902 23.68-51.308 8.456-3.902-23.68z"/><path d="M78.607 50.299l3.901 23.681L31.2 82.433l-3.901-23.681 51.308-8.453M80.258 46c-.256 0-55.33 9.089-55.583 9.13a1.999 1.999 0 0 0-1.648 2.298l4.552 27.628a2 2 0 0 0 1.971 1.675c.257 0 55.329-9.088 55.583-9.13a2 2 0 0 0 1.648-2.299l-4.552-27.627A2.001 2.001 0 0 0 80.258 46z" fill="#fff"/><circle cx="50" cy="29" r="2" fill="#cfd3d4"/><path fill="#17b198" d="M31.2 82.433l.103-.017 29.122-29.122-33.126 5.458z"/><path d="M32.136 70.546l-.005-.032c-.519-3.149 1.541-6.137 4.958-6.7 3.418-.563 6.29 1.58 6.809 4.729l.005.032c.409 3.269-1.651 6.258-4.958 6.7-3.433.459-6.29-1.58-6.809-4.729zm9.226-1.52l-.005-.032c-.312-1.899-1.966-3.251-3.928-2.928-1.962.323-3.067 2.098-2.754 3.997l.005.031c.313 1.899 1.966 3.252 3.928 2.929 1.961-.323 3.067-2.098 2.754-3.997z" fill="#f0f1f1"/><path d="M43.903 68.575l-.005-.032c-.519-3.149-3.391-5.292-6.809-4.729-3.417.563-5.477 3.551-4.958 6.7l.005.032c.49 2.973 3.077 5.046 6.241 4.796l5.602-5.602a5.895 5.895 0 0 0-.076-1.165zm-5.297 4.448c-1.961.323-3.615-1.029-3.928-2.929l-.005-.031c-.313-1.899.792-3.674 2.754-3.997 1.962-.323 3.616 1.029 3.928 2.928l.005.032c.315 1.899-.791 3.674-2.754 3.997z" fill="#fff"/><path d="M45.354 63.899a1.224 1.224 0 0 1 1.018-1.419l3.307-.545c2.643-.435 4.499.868 4.872 3.131l.005.032c.422 2.563-1.353 4.221-3.837 4.63l-1.852.305.362 2.199c.112.681-.337 1.307-1.018 1.419s-1.307-.337-1.419-1.018l-1.438-8.734zm5.086 3.648c1.219-.201 1.811-1.046 1.655-1.995l-.005-.032c-.18-1.092-1.036-1.552-2.255-1.352l-1.883.31.558 3.387 1.93-.318z" fill="#f0f1f1"/><path d="M49.679 61.935l-3.307.545c-.68.112-1.13.739-1.018 1.419l.632 3.834 2.149-2.149-.182-1.106 1.542-.254 2.239-2.239a5.246 5.246 0 0 0-2.055-.05z" fill="#fff"/><path d="M57.342 70.798l-1.423-8.64a1.225 1.225 0 0 1 1.018-1.419l6.14-1.011a1.108 1.108 0 0 1 1.271.912 1.095 1.095 0 0 1-.915 1.256l-4.937.813.37 2.247 4.225-.696c.601-.099 1.172.311 1.271.912s-.313 1.157-.914 1.256l-4.225.696.383 2.326 5.016-.827a1.109 1.109 0 0 1 1.272.912 1.095 1.095 0 0 1-.915 1.256l-6.219 1.024a1.224 1.224 0 0 1-1.418-1.017zm9.164-10.448a1.225 1.225 0 0 1 1.017-1.419l.253-.042c.586-.097.981.131 1.384.503l5.716 5.397-.941-5.712a1.219 1.219 0 1 1 2.406-.396l1.452 8.813a1.225 1.225 0 0 1-1.018 1.419l-.079.013c-.586.097-.981-.131-1.384-.503l-5.927-5.59.978 5.934a1.217 1.217 0 1 1-2.404.396l-1.453-8.813z" fill="#f0f1f1"/></svg>