<?xml version="1.0" encoding="utf-8"?>
<!-- Generator: Adobe Illustrator 19.1.0, SVG Export Plug-In . SVG Version: 6.00 Build 0)  -->
<svg version="1.1" id="Layer_1" xmlns="http://www.w3.org/2000/svg" xmlns:xlink="http://www.w3.org/1999/xlink" x="0px" y="0px"
	 viewBox="0 0 80 80" style="enable-background:new 0 0 80 80;" xml:space="preserve">
<g id="zVySZD.tif">
	<g>
		<g>
			<path d="M40.1,1.7c0.2,0.4,0.4,0.7,0.6,1.1c1.9,4,4.1,7.8,6.8,11.3c2.1,2.7,4.6,5.2,7.3,7.3c4.6,3.7,8.6,7.9,11.4,13.1
				c1.6,3,2.6,6.1,3.2,9.4c0.3,2.1,0.4,4.3,0.3,6.4c-0.2,4-1.2,7.7-3,11.3c-2.9,6-7.3,10.7-13.3,13.8c-2.7,1.4-5.6,2.3-8.7,2.8
				c-2.1,0.3-4.3,0.4-6.4,0.3c-6.3-0.4-11.9-2.5-16.7-6.6c-5.1-4.3-8.4-9.7-10.1-16.1c-0.5-1.9-0.8-3.8-0.9-5.7
				c-0.4-7.1,1.6-13.4,5.6-19.2c2.1-3.1,4.7-5.8,7.5-8.2c2-1.7,4.1-3.3,6-5.2c3.6-3.8,6.5-8.1,8.8-12.8C39.1,3.7,39.5,2.8,40.1,1.7z
				"/>
		</g>
	</g>
</g>
</svg>
