<?xml version="1.0" encoding="utf-8"?>
<!-- Generator: Adobe Illustrator 19.1.0, SVG Export Plug-In . SVG Version: 6.00 Build 0)  -->
<svg version="1.1" id="Layer_1" xmlns="http://www.w3.org/2000/svg" xmlns:xlink="http://www.w3.org/1999/xlink" x="0px" y="0px"
	 viewBox="0 0 80 80" style="enable-background:new 0 0 80 80;" xml:space="preserve">
<g>
	<path d="M40.6,38.3l-11.6,5l10.7,4.6l12.4-4.6C52.2,43.3,40.6,38.3,40.6,38.3z M23.3,44.5l-0.4,22.3l16.9,7.4V51.1L23.3,44.5
		L23.3,44.5z M58,44.5l-15.3,5.8v21.9L58,66V44.5L58,44.5z"/>
	<path d="M21.6,6.5l-11.6,5L20.7,16l12.4-4.6L21.6,6.5z M4.2,12.7L3.8,35l16.9,7.4V19.3L4.2,12.7L4.2,12.7z M39,12.7l-15.3,5.8v21.9
		L39,34.2V12.7L39,12.7z"/>
	<path d="M58.8,5.7l-11.6,5l10.7,4.6l12.4-4.6L58.8,5.7z M41.4,11.9L41,34.2l16.9,7.4V18.5L41.4,11.9L41.4,11.9z M76.2,11.9
		l-15.3,5.8v21.9l15.3-6.2V11.9L76.2,11.9z"/>
</g>
</svg>
