<?xml version="1.0" encoding="utf-8"?>
<!-- Generator: Adobe Illustrator 16.0.0, SVG Export Plug-In . SVG Version: 6.00 Build 0)  -->
<!DOCTYPE svg PUBLIC "-//W3C//DTD SVG 1.1//EN" "http://www.w3.org/Graphics/SVG/1.1/DTD/svg11.dtd">
<svg version="1.1" id="Layer_1" xmlns="http://www.w3.org/2000/svg" xmlns:xlink="http://www.w3.org/1999/xlink" x="0px" y="0px"
	 width="100px" height="100px" viewBox="0 0 100 100" enable-background="new 0 0 100 100" xml:space="preserve">
<g>
	<path d="M19.128,83.159c0.94,0.081,1.841,0.118,2.704,0.118c11.978,0,16.645-7.363,17.617-12.1c2.43-1.535,4.853-3.301,7.244-5.231
		c0.223-0.118,0.421-0.271,0.586-0.467c19.132-15.685,36.056-41.567,36.864-42.812c0.518-0.798,0.402-1.85-0.276-2.517l-0.107-0.105
		c-0.668-0.656-1.704-0.761-2.49-0.25c-1.244,0.808-27.082,17.703-42.771,36.813c-0.24,0.19-0.43,0.431-0.56,0.701
		c-1.841,2.285-3.528,4.598-5.009,6.917c-2.627-0.15-5.244,0.692-7.48,2.438c-2.805,2.189-4.688,5.588-4.918,8.867
		c-0.205,2.924-1.378,3.562-1.631,3.668c-1.016,0.091-1.7,0.928-1.711,1.957C17.179,82.205,18.085,83.07,19.128,83.159z
		 M74.546,29.393c-6.56,8.931-17.528,22.719-29.183,32.467c-0.972-0.51-2.438-1.521-3.306-3.256
		C51.809,46.939,65.608,35.958,74.546,29.393z M39.418,61.933c0.805,1.096,1.734,1.94,2.616,2.567
		c-1.548,1.172-3.102,2.279-4.653,3.262c-0.227-0.004-0.416-0.02-0.565-0.039c-0.082-0.139-0.182-0.268-0.299-0.385
		c-0.104-0.129-0.213-0.5-0.273-0.887C37.202,64.944,38.28,63.436,39.418,61.933z M24.521,75.812c0.15-2.15,1.48-4.504,3.39-5.994
		c1.036-0.809,2.635-1.684,4.645-1.609c0.109,0.34,0.25,0.688,0.434,1.02c0.039,0.462,0.238,0.906,0.578,1.246
		c0.429,0.43,0.974,0.752,1.63,0.967c-0.897,2.49-3.596,7.096-11.399,7.758C24.164,78.272,24.428,77.154,24.521,75.812z"/>
</g>
</svg>
