<?xml version="1.0" encoding="utf-8"?>
<!-- Generator: Adobe Illustrator 19.1.0, SVG Export Plug-In . SVG Version: 6.00 Build 0)  -->
<svg version="1.1" id="Layer_1" xmlns="http://www.w3.org/2000/svg" xmlns:xlink="http://www.w3.org/1999/xlink" x="0px" y="0px"
	 viewBox="0 0 80 80" style="enable-background:new 0 0 80 80;" xml:space="preserve">
<path d="M72.8,46.2h-6.2c-0.3-4.5-1.4-8.8-3.2-12.7c4.3-1.3,7.4-5.2,7.4-9.8c0-1.1-0.9-2.1-2.1-2.1s-2.1,0.9-2.1,2.1
	c0,3.1-2.3,5.7-5.4,6.1c-0.7-1.1-1.5-2.1-2.3-3.1c-0.4-0.5-0.9-1-1.4-1.5c0.6-1.8,0.9-3.7,0.9-5.6C58.5,9.3,50.2,1,40,1
	S21.5,9.3,21.5,19.5c0,1.9,0.3,3.8,0.9,5.6c-0.5,0.5-0.9,1-1.4,1.5c-0.8,1-1.6,2-2.3,3.1c-3-0.4-5.4-3-5.4-6.1
	c0-1.1-0.9-2.1-2.1-2.1s-2.1,0.9-2.1,2.1c0,4.7,3.1,8.6,7.4,9.8c-1.9,3.9-2.9,8.2-3.2,12.7H7.2c-1.1,0-2.1,0.9-2.1,2.1
	s0.9,2.1,2.1,2.1h6.2c0.3,4.5,1.4,8.8,3.2,12.7c-4.3,1.3-7.4,5.2-7.4,9.8c0,1.1,0.9,2.1,2.1,2.1s2.1-0.9,2.1-2.1
	c0-3.1,2.3-5.7,5.4-6.1c0.7,1.1,1.5,2.1,2.3,3.1c5,5.9,11.8,9.1,19,9.1s13.9-3.2,19-9.1c0.8-1,1.6-2,2.3-3.1c3,0.4,5.4,3,5.4,6.1
	c0,1.1,0.9,2.1,2.1,2.1s2.1-0.9,2.1-2.1c0-4.7-3.1-8.6-7.4-9.8c1.9-3.9,2.9-8.2,3.2-12.7h6.2c1.1,0,2.1-0.9,2.1-2.1
	S74,46.2,72.8,46.2L72.8,46.2z M40,5.1c7.9,0,14.4,6.4,14.4,14.4c0,0.9-0.1,1.7-0.2,2.6c-4.2-3-9.1-4.7-14.1-4.7s-9.9,1.6-14.1,4.7
	c-0.2-0.9-0.2-1.7-0.2-2.6C25.6,11.6,32.1,5.1,40,5.1z M17.4,48.2c0-13.9,9-25.3,20.5-26.6v53.1C26.5,73.5,17.4,62.1,17.4,48.2z
	 M42.1,74.8V21.6c11.5,1.2,20.5,12.7,20.5,26.6S53.5,73.5,42.1,74.8z"/>
</svg>
