<?xml version="1.0" encoding="utf-8"?>
<!-- Generator: Adobe Illustrator 19.1.0, SVG Export Plug-In . SVG Version: 6.00 Build 0)  -->
<svg version="1.1" id="Layer_1" xmlns="http://www.w3.org/2000/svg" xmlns:xlink="http://www.w3.org/1999/xlink" x="0px" y="0px"
	 viewBox="0 0 80 80" style="enable-background:new 0 0 80 80;" xml:space="preserve">
<path d="M51,79.5c-0.4,0-1,0-2-0.4c-2.1-0.4-4.6-1.5-5.5-3.5c-0.7-1.3-0.7-2.8-0.6-4.2c0-0.4,0-0.8,0-1.2V58.2h-0.8l0,12.2
	c-0.3,2.2-0.7,3.3-1.9,5.3c-1.2,2.2-3.3,3.6-5.8,3.7c0,0,0,0,0,0c-0.7,0-1.4-0.5-1.4-1.5c0-0.9,0.6-1.5,1-2.1
	c0.2-0.2,0.3-0.4,0.4-0.5c0.3-0.5,1.5-3.6,1.5-4.5V58.5c0,0-0.1,0.1-0.1,0.1c-0.3,0.3-0.7,1.1-0.7,1.9v10.6c0,1.3-0.7,2.4-1.2,3.1
	c-1.6,2.2-4.7,3.2-7,3.2c-1.3,0-2.3-0.5-2.7-1.2c-0.6-1.5,0.9-2.5,1.8-3.1c0.2-0.1,0.3-0.2,0.4-0.3c0.6-0.5,1-1,1.2-1.4
	c0.4-1.1,0.4-3.3,0.3-5.4c0-1.1-0.1-2.1,0-3.1c-3.7,0.9-7.7,0.1-11.2-2.2c-1.8-1.4-3.2-3.1-4.3-5.1c-0.9-1.7-2.4-3.3-4.9-5.2
	l-0.2-0.1l-0.2-0.3c-0.1-0.3-0.6-1,0.2-1.8c0.7-1,1.7-1.3,3-1.2c1,0,1.6,0.2,2.1,0.5c1.8,0.8,2.9,2.2,4,3.6c0.8,1,1.5,2,2.5,2.6
	c2.9,2.5,6.5,2.8,9.5,1c0.7-2.2,1.9-3.5,3.6-4.5c-3.7-0.5-6.6-1.4-8.4-2.2c-3-1.2-5.7-2.9-7.6-5c-5.5-6.2-5.7-16.2-3.5-23.2
	c0.9-2.2,2-4.1,3.4-5.8c-1.1-3.8-0.8-8.1,0.8-12.8l0.3-0.7l0.8,0.1c4.8,0.4,9.3,2.1,12.6,5c7-1.9,15.1-2,22.8-0.3
	c1.1-0.7,2.7-1.7,4.5-2.6c2.3-1.2,5-1.9,8.4-2.1l0.7,0l0.3,0.7c0.8,2.1,1.2,4.1,1.4,6.1c0.2,2,0,4.1-0.4,6c3.3,3.7,5.1,8.6,5.3,14.5
	c0,10.3-3.5,16.4-11.7,20.4c-2.3,1-5.1,1.8-8.3,2.2c2.3,1.6,3.5,3.6,4.1,7.5c0.2,2.4,0.2,4.8,0.2,7.1c0,2.3,0,4.4,0.1,6.5
	c0.2,0.4,0.6,0.9,1.1,1.3c0.6,0.5,1.1,0.8,1.6,1.1c0.8,0.6,1.1,1.4,0.7,2.3c-0.4,0.8-1.3,1-2.7,1.2l-0.2,0c-2.7,0-5.4-1.2-7-3.1
	L51,74c-0.1-0.2-0.2-0.3-0.3-0.5c-0.4-0.6-0.9-1.4-0.9-2.4V60.5c0-0.8-0.2-1.5-0.7-1.9c0,0-0.1-0.1-0.1-0.1V71
	c0,2.2,0.9,3.6,1.4,4.3c0.1,0.2,0.4,0.4,0.6,0.6c0.5,0.5,1.2,1.1,1.4,1.8c0.2,0.4,0.1,0.8-0.1,1.2C52,79.3,51.6,79.5,51,79.5z
	 M36.8,55.9h1V71c0,1.5-1.7,5.3-1.7,5.4c-0.2,0.4-0.4,0.7-0.7,0.9c0,0,0,0,0,0c1.3-0.4,2.3-1.3,3-2.5c1.1-1.7,1.4-2.6,1.7-4.5v-14
	h4.8v14.1c0,0.4,0,0.8,0,1.2c-0.1,1.2-0.1,2.3,0.4,3.2c0.6,1.3,2.6,2.1,4.2,2.4l0,0c-0.2-0.2-0.5-0.5-0.7-0.7
	c-0.7-0.8-1.8-2.7-1.8-5.5V55.7l1.2,0.2c1.3,0.2,1.8,0.7,2.3,1.3c0.6,0.6,1.3,1.6,1.3,3.3v10.6c0,0.4,0.3,0.8,0.6,1.3
	c0.1,0.2,0.3,0.4,0.4,0.6c1.2,1.4,3.3,2.3,5.3,2.3c0.2,0,0.4-0.1,0.7-0.1c-0.4-0.3-0.7-0.5-1.2-0.9c-0.7-0.5-1.3-1.3-1.8-2.2
	l-0.1-0.2l0-0.2c-0.2-2.2-0.2-4.6-0.2-6.9c0-2.3,0-4.6-0.2-6.9c-0.6-4.4-2-5.8-5.8-7.5L46,49l3.9-0.3c4.3-0.3,8-1.1,10.8-2.4
	c7.5-3.7,10.5-9,10.5-18.5C71,22.2,69.2,17.7,66,14.3l-0.4-0.4l0.1-0.5c0.5-1.8,0.6-3.9,0.5-5.9c-0.1-1.6-0.5-3.2-1-4.9
	c-2.7,0.2-5,0.8-6.8,1.8c-1.9,1-3.6,2-4.7,2.7l-0.4,0.2l-0.4-0.1c-7.7-1.8-15.8-1.7-22.7,0.3l-0.5,0.2l-0.4-0.4
	C26.4,4.7,22.5,3,18.2,2.6c-1.3,4.2-1.5,8-0.4,11.4l0.2,0.5l-0.4,0.4c-1.5,1.6-2.6,3.4-3.4,5.6c-2.1,6.5-1.9,15.6,3.1,21.2
	c1.7,1.9,4.1,3.4,6.8,4.5c2.3,0.9,6.1,2,11.3,2.4l4,0.3l-3.6,1.6c-3.4,1.5-5,2.3-5.7,5.1L30,55.9l-0.3,0.2
	c-3.7,2.5-8.5,2.2-12.2-0.9c-1.1-0.8-2-1.9-2.8-3c-1-1.3-2-2.5-3.3-3.1L11.2,49c-0.1,0-0.4-0.1-1-0.1l-0.2,0c-0.4-0.1-0.7,0-0.9,0.2
	c1.8,1.4,3.8,3.2,5.1,5.6c0.9,1.8,2.1,3.3,3.6,4.4c3.3,2.2,7.3,2.8,10.8,1.5l1.6-0.6L30,61.7c-0.2,1.1-0.1,2.7-0.1,4.2
	c0.1,2.3,0.2,4.7-0.5,6.3c-0.5,0.9-1.1,1.7-1.8,2.2c-0.1,0.1-0.3,0.2-0.5,0.4c-0.2,0.1-0.5,0.4-0.8,0.6c0.1,0,0.3,0.1,0.6,0.1
	c2.2,0,4.4-1,5.4-2.4c0.4-0.5,0.8-1.1,0.8-1.9V60.5c0-1.5,0.7-2.7,1.3-3.3C34.9,56.7,35.6,55.9,36.8,55.9z"/>
</svg>
