<?xml version="1.0" encoding="utf-8"?>
<!-- Generator: Adobe Illustrator 19.1.0, SVG Export Plug-In . SVG Version: 6.00 Build 0)  -->
<svg version="1.1" id="Layer_1" xmlns="http://www.w3.org/2000/svg" xmlns:xlink="http://www.w3.org/1999/xlink" x="0px" y="0px"
	 viewBox="375 375 50 50" style="enable-background:new 375 375 50 50;" xml:space="preserve">
<style type="text/css">
	.st0{fill:none;stroke:#000000;stroke-miterlimit:10;}
</style>
<path class="st0" d="M386.1,376.5c-0.9,2.6-1.2,5.3-0.4,7.8c-1,1.1-1.7,2.3-2.2,3.6c-1.4,4.4-1.1,10.1,2,13.6
	c1.1,1.2,2.6,2.2,4.4,2.9s4.2,1.3,7.1,1.5c-2,0.9-3.3,1.5-3.8,3.5c-2.2,1.5-4.8,1.1-6.7-0.5c-1.5-1.1-2.2-3.1-3.9-3.8
	c-0.1-0.1-0.4-0.2-1-0.2c-0.6-0.1-1,0.1-1.3,0.5c-0.2,0.2-0.1,0.3,0,0.5c1.3,1,2.5,2.1,3.2,3.4c0.7,1.4,1.6,2.3,2.4,2.9
	c2.1,1.4,4.7,1.9,7.2,1c-0.3,1.7,0.3,4.8-0.3,6.3c-0.2,0.4-0.5,0.8-0.9,1.1c-0.4,0.3-1.4,0.8-1.2,1.3c0.1,0.2,0.5,0.4,1.1,0.4
	c1.4,0,3-0.6,3.8-1.7c0.3-0.4,0.6-0.9,0.6-1.5v-6.5c0-0.7,0.3-1.3,0.6-1.6c0.3-0.3,0.6-0.6,1.1-0.6v8.6c0,0.7-0.9,2.8-1,3
	c-0.2,0.4-0.8,0.8-0.8,1.3c0,0.2,0.1,0.3,0.2,0.3c1.4-0.1,2.5-0.9,3.1-2c0.7-1.1,0.9-1.7,1.1-3v-8h1.7v8c0,1.1-0.2,2.1,0.3,3
	c0.5,1,1.9,1.6,3,1.8c0.6,0.2,0.9,0.2,1.1,0.2c0.2,0,0.3-0.1,0.2-0.3c-0.1-0.5-0.8-0.9-1.1-1.3c-0.4-0.5-1-1.5-1-3v-8.6
	c0.6,0.1,0.8,0.3,1.1,0.6c0.3,0.3,0.6,0.8,0.6,1.6v6.5c0,0.6,0.5,1.1,0.7,1.5c0.9,1.1,2.4,1.7,3.8,1.7c0.6-0.1,1.1-0.2,1.2-0.4
	c0.1-0.2,0.1-0.4-0.2-0.6c-0.3-0.2-0.6-0.4-1-0.7c-0.4-0.3-0.7-0.7-0.9-1.1c-0.2-2.7,0-5.6-0.2-8.4c-0.4-3-1.5-4-3.9-5.1
	c2.7-0.2,5-0.7,6.8-1.5c5.3-2.6,6.8-6.5,6.8-11.9c-0.1-3.4-1.1-6.4-3.3-8.7c0.3-1.2,0.4-2.5,0.3-3.8c-0.1-1.3-0.4-2.5-0.8-3.6
	c-2,0.1-3.6,0.5-4.9,1.2c-1.3,0.7-2.3,1.3-2.9,1.7c-4.7-1.1-9.7-1.1-14.2,0.2C391.6,377.7,388.8,376.7,386.1,376.5z"/>
</svg>
