<?xml version="1.0" encoding="utf-8"?>
<!-- Generator: Adobe Illustrator 19.2.0, SVG Export Plug-In . SVG Version: 6.00 Build 0)  -->
<svg version="1.1" id="Layer_1" xmlns="http://www.w3.org/2000/svg" xmlns:xlink="http://www.w3.org/1999/xlink" x="0px" y="0px"
	 viewBox="0 0 20 20" style="enable-background:new 0 0 20 20;" xml:space="preserve">
<path d="M11.2,14.1h-0.6V8.8l0,0l0,0c0-0.3-0.3-0.6-0.6-0.6H8.8c-0.3,0-0.6,0.3-0.6,0.6s0.3,0.6,0.6,0.6h0.6v4.7H8.8
	c-0.3,0-0.6,0.3-0.6,0.6s0.3,0.6,0.6,0.6h2.4c0.3,0,0.6-0.3,0.6-0.6S11.5,14.1,11.2,14.1z M10,7.1c0.7,0,1.2-0.5,1.2-1.2
	S10.7,4.7,10,4.7S8.8,5.2,8.8,5.9S9.3,7.1,10,7.1z M10,0.6c-5.2,0-9.4,4.2-9.4,9.4c0,5.2,4.2,9.4,9.4,9.4c5.2,0,9.4-4.2,9.4-9.4
	C19.4,4.8,15.2,0.6,10,0.6z M10,18.3c-4.6,0-8.3-3.7-8.3-8.3c0-4.6,3.7-8.3,8.3-8.3c4.6,0,8.3,3.7,8.3,8.3
	C18.3,14.6,14.6,18.3,10,18.3z"/>
</svg>
