<?xml version="1.0" encoding="utf-8"?>
<!-- Generator: Adobe Illustrator 19.1.0, SVG Export Plug-In . SVG Version: 6.00 Build 0)  -->
<svg version="1.1" id="Layer_1" xmlns="http://www.w3.org/2000/svg" xmlns:xlink="http://www.w3.org/1999/xlink" x="0px" y="0px"
	 viewBox="0 0 80 80" style="enable-background:new 0 0 80 80;" xml:space="preserve">
<path d="M40,1C25.3,1,13.2,11.7,13.2,25.4c0,4.5,2.7,11,4.9,14.6c6.6,11,8.7,13.6,9.8,19.5v4.9h24.4v-4.9c1.1-5.9,3.2-8.5,9.8-19.5
	c2.2-3.7,4.9-10.1,4.9-14.6C66.8,11.7,54.7,1,40,1z M57.8,37.5c-1.2,2.1-2.3,3.9-3.3,5.4c-4.2,6.9-6.1,10.1-7.1,15.8
	c-0.1,0.2-0.1,0.5-0.1,0.9H32.7c0-0.3,0-0.6-0.1-0.8c-1-5.7-2.9-8.9-7.1-15.8c-1-1.5-2.1-3.3-3.3-5.4c-2.1-3.4-4.2-8.9-4.2-12.1
	c0-10.7,9.8-19.5,21.9-19.5c5.9,0,11.5,2.1,15.7,5.8c4,3.7,6.2,8.5,6.2,13.7C61.9,28.6,59.8,34.1,57.8,37.5z M27.8,69.2h24.4
	C51,74.8,45.9,79,40,79S29,74.8,27.8,69.2z"/>
</svg>
