<?xml version="1.0" encoding="utf-8"?>
<!-- Generator: Adobe Illustrator 19.2.0, SVG Export Plug-In . SVG Version: 6.00 Build 0)  -->
<svg version="1.1" id="Layer_1" xmlns="http://www.w3.org/2000/svg" xmlns:xlink="http://www.w3.org/1999/xlink" x="0px" y="0px"
	 viewBox="0 0 80 80" style="enable-background:new 0 0 80 80;" xml:space="preserve">
<g>
	<g>
		<g>
			<path d="M18.6,18.2c1.1-3.1,2.7-5.7,4.7-8c2-2.3,4.5-4,7.5-5.2c2.9-1.2,6.2-1.9,9.9-1.9c3.3,0,6.3,0.5,9,1.4c2.7,0.9,5,2.3,7,4
				c2,1.8,3.5,3.9,4.6,6.5c1.1,2.6,1.7,5.5,1.7,8.9c0,2.2-0.3,4.1-0.8,5.8c-0.5,1.7-1.2,3.3-2.1,4.7c-0.8,1.4-1.8,2.7-2.9,3.9
				c-1.1,1.2-2.2,2.3-3.3,3.4c-1.1,1-2.2,2.1-3.3,3.2c-1.1,1.1-2.1,2.2-3,3.4c-0.9,1.2-1.6,2.5-2.1,4c-0.5,1.4-0.6,1.9-0.6,1.9
				c-0.1,1.6-0.2,4.3-0.2,6c0,0.4,0,0.7,0,1.1c0,0,0,0,0,0c-2,0-3.9,0-5.9,0c-1.6,0-3-1.1-3-2.4c0-1.3,0.2-3.8,0.4-5.4
				c0,0,0.3-2.4,1.3-4.5c0.9-2.1,2.1-3.9,3.5-5.5c1.4-1.6,2.8-3.1,4.3-4.4c1.5-1.4,2.9-2.8,4.2-4.3c1.3-1.5,2.3-3.1,3.1-5
				c0.8-1.8,1.1-4,0.9-6.6c-0.3-3.8-1.5-6.8-3.8-9c-2.2-2.2-5.2-3.2-9-3.2c-2.5,0-4.7,0.5-6.5,1.4c-1.8,0.9-3.4,2.1-4.6,3.6
				c-1.2,1.5-2.1,3.3-2.7,5.4c-0.6,2.1-0.8,4.3-0.9,6.8c0,0,0,0,0,0c-2,0-4,0-5.9,0c-1.7,0-2.9-1.4-2.8-3
				C17.3,25.2,17.5,21.3,18.6,18.2z"/>
		</g>
		<g>
			<path d="M41.7,68c1.7,0,3,1.3,3,3v5.9c0,0,0,0,0,0h-5.9c-1.7,0-3-1.4-3-3V68c0,0,0,0,0,0H41.7z"/>
		</g>
	</g>
</g>
</svg>
