<?xml version="1.0" encoding="utf-8"?>
<!-- Generator: Adobe Illustrator 16.0.0, SVG Export Plug-In . SVG Version: 6.00 Build 0)  -->
<!DOCTYPE svg PUBLIC "-//W3C//DTD SVG 1.1//EN" "http://www.w3.org/Graphics/SVG/1.1/DTD/svg11.dtd">
<svg version="1.1" id="Layer_1" xmlns="http://www.w3.org/2000/svg" xmlns:xlink="http://www.w3.org/1999/xlink" x="0px" y="0px"
	 width="100px" height="100px" viewBox="0 0 100 100" enable-background="new 0 0 100 100" xml:space="preserve">
<g>
	<path d="M19.951,85h47.695c1.105,0,2-0.896,2-2c0-1.018-0.051-2-0.129-3h11.324c1.104,0,2-0.955,2-2.06
		c0-15.181-10.975-27.964-14.452-31.625c3.544-2.921,5.808-7.358,5.808-12.3c0-8.776-7.139-15.924-15.915-15.924
		c-3.233,0-6.401,0.998-9.047,2.826c-1.719-0.599-3.558-0.942-5.479-0.942c-9.229,0-16.737,7.507-16.737,16.736
		c0,5.16,2.35,9.778,6.033,12.851c-4.175,4.181-15.102,16.77-15.102,33.377C17.951,84.045,18.847,85,19.951,85z M78.769,76h-9.771
		c-2.436-13-11.094-22.905-14.585-26.333c0.051-0.042,0.096-0.12,0.145-0.162c1.216,0.292,2.465,0.427,3.726,0.427
		c2.368,0,4.609-0.482,6.632-1.415C66.908,50.549,77.773,62,78.769,76z M58.282,22.084c6.57,0,11.915,5.346,11.915,11.917
		c0,6.57-5.345,11.916-11.915,11.916c-0.185,0-0.366-0.013-0.55-0.021c1.74-2.639,2.761-5.793,2.761-9.184
		c0-5.611-2.784-10.574-7.034-13.612C54.96,22.432,56.589,22.084,58.282,22.084z M31.02,36.711c0-7.023,5.714-12.737,12.737-12.737
		s12.736,5.714,12.736,12.737c0,7.023-5.713,12.736-12.736,12.736S31.02,43.734,31.02,36.711z M36.517,51.837
		c2.195,1.06,4.644,1.64,7.24,1.64c2.567,0,4.991-0.553,7.167-1.59C53.576,54.396,64.668,66,65.586,81H22.012
		C22.912,66,33.594,54.677,36.517,51.837z"/>
</g>
</svg>
