<?xml version="1.0" encoding="utf-8"?>
<!-- Generator: Adobe Illustrator 19.1.0, SVG Export Plug-In . SVG Version: 6.00 Build 0)  -->
<svg version="1.1" id="Layer_1" xmlns="http://www.w3.org/2000/svg" xmlns:xlink="http://www.w3.org/1999/xlink" x="0px" y="0px"
	 viewBox="0 0 80 80" style="enable-background:new 0 0 80 80;" xml:space="preserve">
<style type="text/css">
	.st0{fill:none;stroke:#000000;stroke-width:2;stroke-miterlimit:10;}
</style>
<g>
	<g transform="translate(0.000000, 2.000000)">
		<circle class="st0" cx="39.7" cy="52.9" r="8.2"/>
		<circle class="st0" cx="62.8" cy="55.1" r="6.2"/>
		<path class="st0" d="M62.8,44.5c5.1,0,9.4,3.7,10.3,8.5l0,0l0.2-29.2c0-4.3-3.8-8-8.1-8l-18.3-0.1c-4.3,0-6.3,3-7.8,7.7l-4.6,11
			c0,0.6-3,1-3.8,1.7c-1.9,1.3-3.1,3.2-3.1,6c0,2.2,0,6.9,0,6.9h0.7c1.7-4.8,6.3-8.3,11.7-8.3c6.9,0,12.5,5.6,12.5,12.4v0.1l0,0
			C53.4,48.1,57.7,44.5,62.8,44.5L62.8,44.5z M56.6,23.3c0-3.9,0.6-3.6,4.1-3.6H65c3,0,4.1,0.3,4.1,3.6v8.9H56.7L56.6,23.3
			L56.6,23.3z M52.3,32.3H39.8l2.7-8.7c0,0,1.1-3.8,4.6-3.8c2.6,0,5.2,0,5.2,0L52.3,32.3L52.3,32.3z"/>
		<path d="M19.3,25.5l-0.1,27.7H7.9c-1.6,0-1.6,4,0,4h12.7c1.6,0,2.5-1.2,2.5-2.8l0.1-28.9C23.2,24,19.3,24,19.3,25.5z"/>
	</g>
</g>
</svg>
