<?xml version="1.0" encoding="utf-8"?>
<!-- Generator: Adobe Illustrator 16.0.0, SVG Export Plug-In . SVG Version: 6.00 Build 0)  -->
<!DOCTYPE svg PUBLIC "-//W3C//DTD SVG 1.1//EN" "http://www.w3.org/Graphics/SVG/1.1/DTD/svg11.dtd">
<svg version="1.1" id="Layer_1" xmlns="http://www.w3.org/2000/svg" xmlns:xlink="http://www.w3.org/1999/xlink" x="0px" y="0px"
	 width="100px" height="100px" viewBox="0 0 100 100" enable-background="new 0 0 100 100" xml:space="preserve">
<g>
	<path d="M63.688,45.27l-18.033-8.967c-0.277-0.138-0.832-0.209-1.141-0.209c-2.583,0-5.015,2.09-5.015,4.562v19.211
		c0,2.473,2.432,4.562,5.015,4.562c0.308,0,0.736-0.071,1.011-0.207l18.202-8.969c2.436-1.212,3.701-2.892,3.701-4.992
		C67.43,48.822,66.804,46.786,63.688,45.27z M62.014,51.671l-17.82,8.687c-0.249-0.109-0.693-0.323-0.693-0.49V40.656
		c0-0.164,0.448-0.378,0.694-0.488l17.604,8.691c0.963,0.469,1.601,0.993,1.601,1.402C63.398,50.432,63.461,50.95,62.014,51.671z"/>
	<path d="M87.5,29.526c0-4.985-4.041-9.026-9.026-9.026H22.526c-4.985,0-9.026,4.041-9.026,9.026v40.947
		c0,4.985,4.041,9.026,9.026,9.026h55.947c4.985,0,9.026-4.041,9.026-9.026V29.526z M83.5,70.474c0,2.776-2.25,5.026-5.026,5.026
		H22.526c-2.776,0-5.026-2.25-5.026-5.026V29.526c0-2.776,2.25-5.026,5.026-5.026h55.947c2.776,0,5.026,2.25,5.026,5.026V70.474z"/>
</g>
</svg>
