<svg version="1" xmlns="http://www.w3.org/2000/svg" width="110" height="110" viewBox="0 0 110 110"><circle cx="55" cy="55" r="55" fill="#25B7D3"/><path d="M39 67c0 2.21 1.79 4 4 4h24l12 12V71h4c2.21 0 4-1.79 4-4V35c0-2.21-1.79-4-4-4H43c-2.21 0-4 1.79-4 4v32z" fill="#6FDAF1"/><path d="M71 59c0 2.21-1.79 4-4 4H43L31 75V63h-4c-2.21 0-4-1.79-4-4V27c0-2.21 1.79-4 4-4h40c2.21 0 4 1.79 4 4v32z" fill="#F0F1F1"/><path d="M70.335 24.798C69.62 23.716 68.395 23 67 23H27c-2.21 0-4 1.79-4 4v32c0 2.21 1.79 4 4 4h4v1.134l39.335-39.336z" fill="#FFF"/><circle cx="35" cy="43" r="4" fill="#21B2D1"/><circle cx="47" cy="43" r="4" fill="#21B2D1"/><circle cx="59" cy="43" r="4" fill="#21B2D1"/></svg>