<?xml version="1.0" encoding="utf-8"?>
<!-- Generator: Adobe Illustrator 19.2.1, SVG Export Plug-In . SVG Version: 6.00 Build 0)  -->
<svg version="1.1" id="Layer_1" xmlns="http://www.w3.org/2000/svg" xmlns:xlink="http://www.w3.org/1999/xlink" x="0px" y="0px"
	 viewBox="0 0 500 500" style="enable-background:new 0 0 500 500;" xml:space="preserve">
<style type="text/css">
	.st0{fill-rule:evenodd;clip-rule:evenodd;fill:#181616;}
	.st1{fill:#181616;}
	.st2{fill:#34A6DE;}
</style>
<g>
	<g>
		<path class="st0" d="M209.5,145.2c16.2-4.5,33.4-7,50.6-7.5V51.4c-2.4,0.1-4.9-1.4-5-4.4c-0.2-5.5-2.1-10.2-4.5-15
			c-0.7-0.7-1.1-1.7-1.3-2.8c-116.8,8.5-209,105.9-209,224.9c0,99.7,64.6,184.2,154.3,214.1c11.3,2.1,15.4-4.9,15.4-10.9
			c0-5.4-0.2-23.2-0.3-42c-62.8,13.6-76-26.6-76-26.6c-10.3-26.1-25-33-25-33c-20.5-14,1.5-13.7,1.5-13.7
			c22.7,1.6,34.6,23.3,34.6,23.3c20.1,34.5,52.8,24.5,65.7,18.8c2-14.6,7.9-24.5,14.3-30.2c-50.1-5.7-102.8-25-102.8-111.5
			c0-24.6,8.8-44.8,23.2-60.6c-2.3-5.7-10.1-28.6,2.2-59.7C147.5,122.1,166.4,116,209.5,145.2z"/>
		<path class="st1" d="M124.9,350.6c-0.5,1.1-2.3,1.5-3.9,0.7c-1.6-0.7-2.6-2.3-2-3.4c0.5-1.2,2.3-1.5,3.9-0.7
			C124.5,347.9,125.5,349.5,124.9,350.6L124.9,350.6z M122.1,348.5"/>
		<path class="st1" d="M134,360.8c-1.1,1-3.2,0.5-4.6-1c-1.5-1.6-1.8-3.7-0.7-4.7c1.1-1,3.1-0.5,4.6,1
			C134.9,357.7,135.2,359.8,134,360.8L134,360.8z M131.9,358.5"/>
		<path class="st1" d="M142.9,373.8c-1.4,1-3.6,0.1-5-1.9c-1.4-2-1.4-4.4,0-5.4c1.4-1,3.6-0.1,5,1.9
			C144.3,370.4,144.3,372.8,142.9,373.8L142.9,373.8z M142.9,373.8"/>
		<path class="st1" d="M155.1,386.3c-1.2,1.4-3.9,1-5.8-0.9c-2-1.8-2.5-4.4-1.3-5.8c1.3-1.4,3.9-1,5.8,0.9
			C155.8,382.4,156.4,385,155.1,386.3L155.1,386.3z M155.1,386.3"/>
		<path class="st1" d="M171.9,393.6c-0.5,1.8-3.1,2.6-5.6,1.8c-2.6-0.8-4.2-2.8-3.7-4.6c0.5-1.8,3.1-2.6,5.7-1.8
			C170.8,389.8,172.5,391.8,171.9,393.6L171.9,393.6z M171.9,393.6"/>
		<path class="st1" d="M190.4,395c0.1,1.9-2.1,3.4-4.8,3.4c-2.7,0.1-4.9-1.4-4.9-3.3c0-1.9,2.1-3.4,4.8-3.5
			C188.2,391.6,190.4,393.1,190.4,395L190.4,395z M190.4,395"/>
		<path class="st1" d="M207.6,392.1c0.3,1.8-1.5,3.7-4.2,4.2c-2.6,0.5-5-0.6-5.4-2.4c-0.3-1.9,1.6-3.7,4.2-4.2
			C204.8,389.1,207.2,390.2,207.6,392.1L207.6,392.1z M207.6,392.1"/>
	</g>
	<g id="zVySZD.tif">
		<g>
			<g>
				<path class="st2" d="M437.4,268.1c-4-19.4-10.6-37.6-21.1-55.2c-18.5-30.5-44.9-55.2-75.2-76.9c-17.8-12.3-34.3-27-48.2-42.8
					c-17.3-20-31.5-41.6-43.8-64.4v442.5c8.5-0.2,17-0.8,25.3-1.9c20.4-2.9,39.6-8.2,57.4-16.4c39.6-18.2,68.6-45.8,87.7-81
					c11.9-21.1,18.5-42.8,19.8-66.3C440,293.4,439.4,280.5,437.4,268.1z"/>
			</g>
		</g>
	</g>
</g>
</svg>
