<svg id="Layer_1" xmlns="http://www.w3.org/2000/svg" viewBox="0 0 500 500"><style>.st0{fill-rule:evenodd;clip-rule:evenodd}.st0,.st1{fill:#181616}.st2{fill:#34a6de}</style><path class="st0" d="M209.5 145.2c16.2-4.5 33.4-7 50.6-7.5V51.4c-2.4.1-4.9-1.4-5-4.4-.2-5.5-2.1-10.2-4.5-15-.7-.7-1.1-1.7-1.3-2.8-116.8 8.5-209 105.9-209 224.9 0 99.7 64.6 184.2 154.3 214.1 11.3 2.1 15.4-4.9 15.4-10.9 0-5.4-.2-23.2-.3-42-62.8 13.6-76-26.6-76-26.6-10.3-26.1-25-33-25-33-20.5-14 1.5-13.7 1.5-13.7 22.7 1.6 34.6 23.3 34.6 23.3 20.1 34.5 52.8 24.5 65.7 18.8 2-14.6 7.9-24.5 14.3-30.2-50.1-5.7-102.8-25-102.8-111.5 0-24.6 8.8-44.8 23.2-60.6-2.3-5.7-10.1-28.6 2.2-59.7.1 0 19-6.1 62.1 23.1z"/><path class="st1" d="M124.9 350.6c-.5 1.1-2.3 1.5-3.9.7-1.6-.7-2.6-2.3-2-3.4.5-1.2 2.3-1.5 3.9-.7 1.6.7 2.6 2.3 2 3.4zm-2.8-2.1M134 360.8c-1.1 1-3.2.5-4.6-1-1.5-1.6-1.8-3.7-.7-4.7s3.1-.5 4.6 1c1.6 1.6 1.9 3.7.7 4.7zm-2.1-2.3M142.9 373.8c-1.4 1-3.6.1-5-1.9s-1.4-4.4 0-5.4 3.6-.1 5 1.9 1.4 4.4 0 5.4zm0 0M155.1 386.3c-1.2 1.4-3.9 1-5.8-.9-2-1.8-2.5-4.4-1.3-5.8 1.3-1.4 3.9-1 5.8.9 2 1.9 2.6 4.5 1.3 5.8zm0 0M171.9 393.6c-.5 1.8-3.1 2.6-5.6 1.8-2.6-.8-4.2-2.8-3.7-4.6.5-1.8 3.1-2.6 5.7-1.8 2.5.8 4.2 2.8 3.6 4.6zm0 0M190.4 395c.1 1.9-2.1 3.4-4.8 3.4-2.7.1-4.9-1.4-4.9-3.3s2.1-3.4 4.8-3.5c2.7 0 4.9 1.5 4.9 3.4zm0 0M207.6 392.1c.3 1.8-1.5 3.7-4.2 4.2-2.6.5-5-.6-5.4-2.4-.3-1.9 1.6-3.7 4.2-4.2 2.6-.6 5 .5 5.4 2.4zm0 0"/><g id="zVySZD.tif"><path class="st2" d="M437.4 268.1c-4-19.4-10.6-37.6-21.1-55.2-18.5-30.5-44.9-55.2-75.2-76.9-17.8-12.3-34.3-27-48.2-42.8-17.3-20-31.5-41.6-43.8-64.4v442.5c8.5-.2 17-.8 25.3-1.9 20.4-2.9 39.6-8.2 57.4-16.4 39.6-18.2 68.6-45.8 87.7-81 11.9-21.1 18.5-42.8 19.8-66.3.7-12.3.1-25.2-1.9-37.6z"/></g></svg>